<?xml version="1.0" standalone="no"?>
<!DOCTYPE svg PUBLIC "-//W3C//DTD SVG 20010904//EN"
 "http://www.w3.org/TR/2001/REC-SVG-20010904/DTD/svg10.dtd">
<svg version="1.0" xmlns="http://www.w3.org/2000/svg"
 width="192.000000pt" height="192.000000pt" viewBox="0 0 192.000000 192.000000"
 preserveAspectRatio="xMidYMid meet">
<metadata>
Created by potrace 1.14, written by Peter Selinger 2001-2017
</metadata>
<g transform="translate(0.000000,192.000000) scale(0.100000,-0.100000)"
fill="#000000" stroke="none">
<path d="M0 960 l0 -960 960 0 960 0 0 960 0 960 -960 0 -960 0 0 -960z m1132
906 c332 -64 604 -315 698 -646 31 -107 38 -299 15 -411 -51 -256 -206 -473
-430 -606 -49 -29 -90 -51 -93 -48 -2 2 7 18 22 35 61 73 71 210 23 312 -38
83 -78 129 -184 218 -271 226 -370 363 -428 594 -23 91 -45 256 -45 344 l-1
47 -15 -29 c-30 -54 -54 -204 -54 -333 l0 -122 -42 -3 -43 -3 43 -13 c42 -13
43 -14 37 -45 -6 -28 -43 -98 -101 -188 -21 -33 -13 -55 27 -77 18 -9 43 -26
57 -38 24 -19 24 -22 11 -58 -12 -34 -12 -39 3 -50 12 -9 14 -16 6 -30 -8 -14
-5 -25 12 -49 15 -20 25 -51 30 -94 5 -49 12 -69 31 -89 42 -41 82 -41 189 1
158 62 258 59 319 -10 65 -74 63 -179 -3 -242 -59 -55 -134 -54 -188 4 -31 33
-33 110 -3 143 55 61 126 62 182 3 31 -32 32 -33 23 -8 -20 53 -33 67 -77 87
-77 34 -166 -1 -209 -83 -21 -41 -18 -132 6 -180 20 -39 91 -99 117 -99 7 0
13 -5 13 -11 0 -20 -272 -5 -360 21 -310 89 -541 321 -632 637 -19 66 -23 102
-23 233 0 132 3 167 23 235 96 332 363 583 692 650 88 18 262 18 352 1z"/>
</g>
</svg>
